# This file uses centimeters as units for non-parametric coordinates.

mtllib pinetree_1.mtl
g default
v -37.179924 0.000000 -18.116177
v -43.997643 0.000000 -52.306690
v -65.057854 0.000000 -38.370674
v -82.287361 0.000000 -32.772469
v -118.637955 0.000000 -6.403664
v -92.935776 0.000000 0.000000
v -82.287354 0.000000 40.707436
v -65.057854 0.000000 46.305634
v -47.828362 0.000000 14.656288
v 0.000000 0.000000 0.000000
v -47.828335 475.369843 14.656288
v -65.057861 475.369843 20.254494
v -82.287338 475.369843 14.656288
v -92.935776 475.369843 0.000000
v -92.935760 475.369843 -18.116173
v -82.287369 475.369843 -32.772469
v -65.057846 475.369843 -38.370674
v -47.828320 475.369843 -32.772472
v -37.179913 475.369843 -18.116177
v -37.179928 475.369843 0.000000
v -47.828354 102.075531 14.656288
v -37.179939 102.075531 0.000000
v -37.179916 102.075531 -18.116177
v -47.828339 102.075531 -32.772472
v -65.057854 102.075531 -38.370674
v -82.287361 102.075531 -32.772469
v -92.935776 102.075531 -18.116173
v -92.935776 102.075531 0.000000
v -82.287354 102.075531 14.656288
v -65.057861 102.075531 20.254494
v -42.314354 190.558456 -32.260788
v -65.057854 190.558456 -41.681458
v -87.801361 190.558456 -32.260788
v -97.222023 190.558456 -9.517284
v -87.801361 190.558456 13.226219
v -65.057854 190.558456 22.646889
v -42.314350 190.558456 13.226219
v -32.893684 190.558456 -9.517284
v 69.932121 64.536507 -144.507233
v -65.057808 64.536507 -200.421753
v -200.047745 64.536507 -144.507233
v -255.962280 64.536507 -9.517292
v -200.047745 64.536507 125.472649
v -65.057808 64.536507 181.387207
v 69.932182 64.536507 125.472679
v 125.846649 64.536507 -9.517292
v -43.521324 239.703278 -31.053818
v -65.057854 239.703278 -39.974541
v -86.594376 239.703278 -31.053818
v -95.515106 239.703278 -9.517284
v -86.594376 239.703278 12.019241
v -65.057854 239.703278 20.939964
v -43.521320 239.703278 12.019241
v -34.600597 239.703278 -9.517284
v 55.376160 121.629715 -129.951263
v -65.057808 121.629715 -179.836700
v -185.491776 121.629715 -129.951263
v -235.377228 121.629715 -9.517292
v -185.491776 121.629715 110.916695
v -65.057808 121.629715 160.802124
v 55.376205 121.629715 110.916695
v 105.261597 121.629715 -9.517292
v -44.519058 304.296967 -30.056080
v -65.057854 304.296967 -38.563530
v -85.596649 304.296967 -30.056080
v -94.104095 304.296967 -9.517284
v -85.596649 304.296967 11.021507
v -65.057854 304.296967 19.528954
v -44.519054 304.296967 11.021507
v -36.011608 304.296967 -9.517284
v 35.379662 185.129028 -109.954773
v -65.057808 185.129028 -151.557312
v -165.495300 185.129028 -109.954773
v -207.097824 185.129028 -9.517292
v -165.495300 185.129028 90.920204
v -65.057808 185.129028 132.522736
v 35.379700 185.129028 90.920219
v 76.982170 185.129028 -9.517292
v -46.007813 354.590088 -28.567322
v -65.057846 354.590088 -36.458107
v -84.107880 354.590088 -28.567322
v -91.998657 354.590088 -9.517288
v -84.107880 354.590088 9.532745
v -65.057846 354.590088 17.423531
v -46.007809 354.590088 9.532745
v -38.117027 354.590088 -9.517288
v 23.547897 266.327759 -98.123016
v -65.057808 266.327759 -134.824677
v -153.663513 266.327759 -98.123016
v -190.365173 266.327759 -9.517296
v -153.663513 266.327759 79.088448
v -65.057808 266.327759 115.790092
v 23.547966 266.327759 79.088478
v 60.249557 266.327759 -9.517296
v -45.917656 432.737701 -28.657486
v -65.057846 432.737701 -36.585617
v -84.198044 432.737701 -28.657486
v -92.126175 432.737701 -9.517282
v -84.198044 432.737701 9.622906
v -65.057846 432.737701 17.551041
v -45.917648 432.737701 9.622911
v -37.989517 432.737701 -9.517281
v 19.171089 338.004547 -93.746208
v -65.057762 338.004547 -128.634949
v -149.286713 338.004547 -93.746208
v -184.175446 338.004547 -9.517292
v -149.286697 338.004547 74.711609
v -65.057800 338.004547 109.600372
v 19.171127 338.004547 74.711624
v 54.059837 338.004547 -9.517307
v -44.296875 479.290955 -30.278221
v -65.057838 479.290955 -38.877716
v -85.818802 479.290955 -30.278221
v -94.418274 479.290955 -9.517262
v -85.818802 479.290955 11.243675
v -65.057838 479.290955 19.843170
v -44.296875 479.290955 11.243675
v -35.697403 479.290955 -9.517262
v -10.420643 417.892365 -64.154457
v -65.057808 417.892365 -86.785889
v -119.694977 417.892365 -64.154457
v -142.326416 417.892365 -9.517265
v -119.694977 417.892365 45.119896
v -65.057808 417.892365 67.751350
v -10.420612 417.892365 45.119896
v 12.210800 417.892365 -9.517265
v -65.057838 528.340820 1.843750
vt 0.101855 0.609378
vt 0.078598 0.609314
vt 0.079022 0.129128
vt 0.101855 0.127825
vt 0.125108 0.609280
vt 0.125110 0.127429
vt 0.148352 0.609197
vt 0.148513 0.126825
vt 0.171591 0.609130
vt 0.172129 0.126027
vt 0.194820 0.609085
vt 0.195841 0.126604
vt 0.218043 0.609057
vt 0.219440 0.127000
vt 0.241257 0.609047
vt 0.242798 0.127909
vt 0.264463 0.609050
vt 0.265556 0.129626
vt 0.055345 0.609256
vt 0.056554 0.130135
vt 0.300416 0.024072
vt 0.350686 0.037297
vt 0.052202 0.019742
vt 0.087772 0.010248
vt 0.114213 0.011053
vt 0.132824 0.009466
vt 0.178213 0.001152
vt 0.204343 0.008136
vt 0.247440 0.008042
vt 0.265937 0.010128
vt 0.612184 0.642510
vt 0.629415 0.667853
vt 0.471724 0.866301
vt 0.369430 0.715010
vt 0.612626 0.611747
vt 0.372021 0.532386
vt 0.630520 0.586756
vt 0.478596 0.384060
vt 0.659599 0.576537
vt 0.650838 0.323317
vt 0.689301 0.584708
vt 0.826876 0.372009
vt 0.708901 0.608405
vt 0.943452 0.512612
vt 0.711470 0.639107
vt 0.958669 0.694632
vt 0.696001 0.665721
vt 0.867060 0.852643
vt 0.612184 0.642510
vt 0.629415 0.667853
vt 0.471724 0.866301
vt 0.369430 0.715010
vt 0.612626 0.611747
vt 0.372021 0.532386
vt 0.630520 0.586756
vt 0.478596 0.384060
vt 0.659599 0.576538
vt 0.650838 0.323317
vt 0.689301 0.584708
vt 0.826876 0.372009
vt 0.708901 0.608405
vt 0.943452 0.512612
vt 0.711470 0.639107
vt 0.958669 0.694632
vt 0.696001 0.665721
vt 0.867060 0.852643
vt 0.612184 0.642510
vt 0.629415 0.667853
vt 0.471724 0.866301
vt 0.369430 0.715010
vt 0.612626 0.611748
vt 0.372021 0.532386
vt 0.630520 0.586756
vt 0.478596 0.384060
vt 0.659599 0.576537
vt 0.650838 0.323317
vt 0.689301 0.584708
vt 0.826876 0.372009
vt 0.708901 0.608405
vt 0.943452 0.512612
vt 0.711470 0.639107
vt 0.958669 0.694632
vt 0.696001 0.665721
vt 0.867060 0.852643
vt 0.612184 0.642510
vt 0.629415 0.667853
vt 0.471724 0.866301
vt 0.369430 0.715010
vt 0.612626 0.611748
vt 0.372021 0.532386
vt 0.630520 0.586756
vt 0.478596 0.384060
vt 0.659599 0.576537
vt 0.650838 0.323317
vt 0.689301 0.584708
vt 0.826876 0.372009
vt 0.708901 0.608405
vt 0.943452 0.512612
vt 0.711470 0.639107
vt 0.958669 0.694632
vt 0.696001 0.665721
vt 0.867060 0.852643
vt 0.612184 0.642510
vt 0.629415 0.667853
vt 0.471724 0.866301
vt 0.369430 0.715010
vt 0.612626 0.611748
vt 0.372021 0.532386
vt 0.630520 0.586756
vt 0.478596 0.384060
vt 0.659599 0.576537
vt 0.650838 0.323317
vt 0.689301 0.584708
vt 0.826876 0.372009
vt 0.708901 0.608405
vt 0.943452 0.512612
vt 0.711470 0.639107
vt 0.958669 0.694632
vt 0.696001 0.665721
vt 0.867060 0.852643
vt 0.284557 0.850860
vt 0.307404 0.822325
vt 0.424596 0.875432
vt 0.364498 0.952484
vt 0.247793 0.866449
vt 0.275361 0.994007
vt 0.209531 0.863582
vt 0.177906 0.991457
vt 0.174716 0.844284
vt 0.091524 0.947552
vt 0.149332 0.812527
vt 0.031742 0.872323
vt 0.137503 0.774346
vt 0.008281 0.780332
vt 0.141006 0.736663
vt 0.025014 0.688129
vt 0.158958 0.706286
vt 0.079680 0.612997
vt 0.224276 0.769540
vt 0.287846 0.130997
vt 0.287664 0.609060
vt 0.008412 0.024848
vn 0.587785 -0.000000 -0.809017
vn 0.951057 -0.000000 -0.309016
vn 0.925564 0.026180 -0.377685
vn 0.594795 0.019305 -0.803646
vn -0.000000 -0.000000 -1.000000
vn -0.060033 0.010779 -0.998138
vn -0.587785 0.000000 -0.809017
vn -0.574627 0.007080 -0.818385
vn -0.951057 0.000000 -0.309017
vn -0.943990 0.021574 -0.329269
vn -0.951057 0.000000 0.309017
vn -0.931203 0.021210 0.363882
vn -0.587785 0.000000 0.809017
vn -0.646699 0.033415 0.762013
vn -0.000000 -0.000000 1.000000
vn 0.083867 0.042468 0.995572
vn 0.587785 -0.000000 0.809017
vn 0.585859 0.026565 0.809978
vn 0.951057 -0.000000 0.309017
vn 0.944518 0.038589 0.326186
vn 0.580165 0.084860 0.810066
vn 0.940356 0.171257 0.293940
vn 0.837942 0.090477 -0.538207
vn 0.574948 0.088616 -0.813377
vn -0.259049 0.046511 -0.964744
vn -0.539526 0.025504 -0.841583
vn -0.951669 0.103218 -0.289261
vn -0.859247 0.078297 0.505533
vn -0.726796 0.142931 0.671817
vn 0.318936 0.181045 0.930324
vn -0.000000 0.783199 -0.621772
vn 0.439659 0.783199 -0.439659
vn 0.439659 0.783199 -0.439659
vn 0.000000 0.783199 -0.621772
vn -0.439659 0.783199 -0.439659
vn -0.439659 0.783199 -0.439659
vn -0.621772 0.783199 0.000000
vn -0.621772 0.783198 -0.000000
vn -0.439659 0.783199 0.439659
vn -0.439659 0.783199 0.439659
vn -0.000000 0.783199 0.621772
vn 0.000000 0.783199 0.621772
vn 0.439659 0.783199 0.439659
vn 0.439659 0.783199 0.439659
vn 0.621771 0.783199 -0.000000
vn 0.621771 0.783199 -0.000000
vn -0.000000 0.764117 -0.645078
vn 0.456139 0.764117 -0.456139
vn 0.456139 0.764117 -0.456139
vn 0.000000 0.764117 -0.645078
vn -0.456139 0.764117 -0.456139
vn -0.456139 0.764117 -0.456139
vn -0.645078 0.764117 -0.000000
vn -0.645078 0.764117 -0.000000
vn -0.456139 0.764117 0.456139
vn -0.456139 0.764117 0.456139
vn -0.000000 0.764117 0.645078
vn 0.000000 0.764117 0.645078
vn 0.456139 0.764117 0.456139
vn 0.456139 0.764117 0.456139
vn 0.645078 0.764117 -0.000000
vn 0.645078 0.764117 -0.000000
vn -0.000000 0.688059 -0.725655
vn 0.513116 0.688059 -0.513116
vn 0.513116 0.688059 -0.513115
vn 0.000000 0.688059 -0.725655
vn -0.513116 0.688059 -0.513116
vn -0.513116 0.688059 -0.513116
vn -0.725655 0.688058 0.000000
vn -0.725655 0.688058 0.000000
vn -0.513116 0.688059 0.513116
vn -0.513116 0.688059 0.513116
vn -0.000000 0.688059 0.725655
vn 0.000000 0.688059 0.725655
vn 0.513116 0.688059 0.513116
vn 0.513116 0.688059 0.513115
vn 0.725655 0.688059 0.000000
vn 0.725655 0.688059 0.000000
vn -0.000000 0.744300 -0.667846
vn 0.472238 0.744300 -0.472238
vn 0.472238 0.744300 -0.472238
vn 0.000000 0.744300 -0.667845
vn -0.472238 0.744300 -0.472238
vn -0.472238 0.744300 -0.472238
vn -0.667846 0.744300 0.000000
vn -0.667846 0.744300 0.000000
vn -0.472238 0.744300 0.472238
vn -0.472238 0.744300 0.472238
vn -0.000000 0.744300 0.667845
vn 0.000000 0.744300 0.667845
vn 0.472238 0.744300 0.472238
vn 0.472238 0.744300 0.472238
vn 0.667845 0.744300 0.000000
vn 0.667845 0.744300 0.000000
vn -0.000000 0.696875 -0.717193
vn 0.507132 0.696875 -0.507132
vn 0.507132 0.696875 -0.507132
vn 0.000000 0.696875 -0.717193
vn -0.507132 0.696875 -0.507132
vn -0.507132 0.696874 -0.507132
vn -0.717193 0.696874 0.000000
vn -0.717193 0.696874 0.000000
vn -0.507132 0.696874 0.507132
vn -0.507132 0.696874 0.507132
vn -0.000000 0.696875 0.717193
vn 0.000000 0.696875 0.717193
vn 0.507132 0.696875 0.507132
vn 0.507132 0.696875 0.507132
vn 0.717193 0.696875 -0.000000
vn 0.717193 0.696875 -0.000000
vn -0.000000 0.618546 -0.785749
vn 0.554943 0.614363 -0.560889
vn 0.557479 0.615170 -0.557479
vn 0.000000 0.615170 -0.788395
vn -0.554943 0.614363 -0.560889
vn -0.557479 0.615170 -0.557479
vn -0.797635 0.603107 -0.006360
vn -0.788395 0.615170 -0.000000
vn -0.574411 0.589839 0.567576
vn -0.557479 0.615170 0.557479
vn 0.000000 0.583624 0.812024
vn 0.000000 0.615170 0.788395
vn 0.574411 0.589839 0.567575
vn 0.557479 0.615170 0.557479
vn 0.797635 0.603108 -0.006360
vn 0.788395 0.615170 -0.000000
vn -0.000000 0.996391 0.084888
s 1
g pine_Tree_1
usemtl lambert2SG
f 18/1/1 19/2/2 23/3/3 24/4/4
f 17/5/5 18/1/1 24/4/4 25/6/6
f 16/7/7 17/5/5 25/6/6 26/8/8
f 15/9/9 16/7/7 26/8/8 27/10/10
f 14/11/11 15/9/9 27/10/10 28/12/12
f 13/13/13 14/11/11 28/12/12 29/14/14
f 12/15/15 13/13/13 29/14/14 30/16/16
f 11/17/17 12/15/15 30/16/16 21/18/18
f 20/141/19 11/17/17 21/18/18 22/140/20
f 19/2/2 20/19/19 22/20/20 23/3/3
f 22/140/20 21/18/18 9/21/21 10/22/22
f 23/3/3 22/20/20 10/142/22 1/23/23
f 24/4/4 23/3/3 1/23/23 2/24/24
f 25/6/6 24/4/4 2/24/24 3/25/25
f 26/8/8 25/6/6 3/25/25 4/26/26
f 27/10/10 26/8/8 4/26/26 5/27/27
f 28/12/12 27/10/10 5/27/27 6/28/28
f 29/14/14 28/12/12 6/28/28 7/29/29
f 30/16/16 29/14/14 7/29/29 8/30/30
f 21/18/18 30/16/16 8/30/30 9/21/21
s 2
f 32/31/31 31/32/32 39/33/33 40/34/34
f 33/35/35 32/31/31 40/34/34 41/36/36
f 34/37/37 33/35/35 41/36/36 42/38/38
f 35/39/39 34/37/37 42/38/38 43/40/40
f 36/41/41 35/39/39 43/40/40 44/42/42
f 37/43/43 36/41/41 44/42/42 45/44/44
f 38/45/45 37/43/43 45/44/44 46/46/46
f 31/47/32 38/45/45 46/46/46 39/48/33
s 3
f 48/49/47 47/50/48 55/51/49 56/52/50
f 49/53/51 48/49/47 56/52/50 57/54/52
f 50/55/53 49/53/51 57/54/52 58/56/54
f 51/57/55 50/55/53 58/56/54 59/58/56
f 52/59/57 51/57/55 59/58/56 60/60/58
f 53/61/59 52/59/57 60/60/58 61/62/60
f 54/63/61 53/61/59 61/62/60 62/64/62
f 47/65/48 54/63/61 62/64/62 55/66/49
s 4
f 64/67/63 63/68/64 71/69/65 72/70/66
f 65/71/67 64/67/63 72/70/66 73/72/68
f 66/73/69 65/71/67 73/72/68 74/74/70
f 67/75/71 66/73/69 74/74/70 75/76/72
f 68/77/73 67/75/71 75/76/72 76/78/74
f 69/79/75 68/77/73 76/78/74 77/80/76
f 70/81/77 69/79/75 77/80/76 78/82/78
f 63/83/64 70/81/77 78/82/78 71/84/65
s 5
f 80/85/79 79/86/80 87/87/81 88/88/82
f 81/89/83 80/85/79 88/88/82 89/90/84
f 82/91/85 81/89/83 89/90/84 90/92/86
f 83/93/87 82/91/85 90/92/86 91/94/88
f 84/95/89 83/93/87 91/94/88 92/96/90
f 85/97/91 84/95/89 92/96/90 93/98/92
f 86/99/93 85/97/91 93/98/92 94/100/94
f 79/101/80 86/99/93 94/100/94 87/102/81
s 6
f 96/103/95 95/104/96 103/105/97 104/106/98
f 97/107/99 96/103/95 104/106/98 105/108/100
f 98/109/101 97/107/99 105/108/100 106/110/102
f 99/111/103 98/109/101 106/110/102 107/112/104
f 100/113/105 99/111/103 107/112/104 108/114/106
f 101/115/107 100/113/105 108/114/106 109/116/108
f 102/117/109 101/115/107 109/116/108 110/118/110
f 95/119/96 102/117/109 110/118/110 103/120/97
s 7
f 112/121/111 111/122/112 119/123/113 120/124/114
f 113/125/115 112/121/111 120/124/114 121/126/116
f 114/127/117 113/125/115 121/126/116 122/128/118
f 115/129/119 114/127/117 122/128/118 123/130/120
f 116/131/121 115/129/119 123/130/120 124/132/122
f 117/133/123 116/131/121 124/132/122 125/134/124
f 118/135/125 117/133/123 125/134/124 126/136/126
f 111/137/112 118/135/125 126/136/126 119/138/113
f 111/122/112 112/121/111 127/139/127
f 112/121/111 113/125/115 127/139/127
f 113/125/115 114/127/117 127/139/127
f 114/127/117 115/129/119 127/139/127
f 115/129/119 116/131/121 127/139/127
f 116/131/121 117/133/123 127/139/127
f 117/133/123 118/135/125 127/139/127
f 118/135/125 111/137/112 127/139/127
